# xmcd
#
# Track frame offsets:
#	150
#	11563
#	28670
#	45966
#	59268
#	82847
#	102988
#	114606
#	135441
#	150541
#	176311
#	199054
#
# Disc length: 2843 seconds
# Revision: 0
# Processed by: cddbd v1.5.2PL0 Copyright (c) Steve Scherf et al.
# Submitted via: dBpowerAMP V12.0
#
DISCID=880b190c
DTITLE=PAUL PERSONNE - Demain... Il f'ra beau
DYEAR=2003
DGENRE=Français
TTITLE0=Partir
TTITLE1=Saoule
TTITLE2=La foire à la brocante
TTITLE3=Demain... Il f'ra beau
TTITLE4=Essayer d'y croire
TTITLE5=En douceur
TTITLE6=Le diable en hiver
TTITLE7=J'me taille
TTITLE8=Les p'tites routes
TTITLE9=coup d'soleil
TTITLE10=La route
TTITLE11=Monde en couleurs(s)
EXTD=
EXTT0=
EXTT1=
EXTT2=
EXTT3=
EXTT4=
EXTT5=
EXTT6=
EXTT7=
EXTT8=
EXTT9=
EXTT10=
EXTT11=
PLAYORDER=
